<mxfile host="app.diagrams.net" modified="2024-04-18T14:30:13.122Z" agent="Mozilla/5.0 (Windows NT 10.0; Win64; x64) AppleWebKit/537.36 (KHTML, like Gecko) Chrome/123.0.0.0 Safari/537.36" version="24.2.5" etag="wb7J5f2qntew0M86pIqk" type="github">
  <diagram name="Page-1" id="nLSiisW-10SjmvcXNyq0">
    <mxGraphModel>
      <root>
        <mxCell id="0" />
        <mxCell id="1" parent="0" />
      </root>
    </mxGraphModel>
  </diagram>
</mxfile>
